<svg width="34" height="18" viewBox="0 0 34 18" fill="none" xmlns="http://www.w3.org/2000/svg">
<path d="M32.9607 1.49851C33.2359 1.52024 33.4767 1.3147 33.4984 1.03941C33.5202 0.764126 33.3146 0.523346 33.0393 0.501614L32.9607 1.49851ZM2.53438 17.6823C2.63501 17.9394 2.92505 18.0663 3.1822 17.9657L7.37279 16.3259C7.62994 16.2252 7.75684 15.9352 7.65621 15.678C7.55558 15.4209 7.26554 15.294 7.00839 15.3946L3.28342 16.8522L1.82581 13.1273C1.72519 12.8701 1.43515 12.7432 1.17799 12.8438C0.920837 12.9445 0.793945 13.2345 0.894572 13.4917L2.53438 17.6823ZM33.0393 0.501614C23.441 -0.256088 16.6957 1.88954 11.8989 5.27925C7.1103 8.6632 4.31258 13.2524 2.54192 17.2996L3.45808 17.7005C5.18742 13.7477 7.8897 9.33692 12.4761 6.09592C17.0543 2.86068 23.559 0.756334 32.9607 1.49851L33.0393 0.501614Z" fill="#FCFCFC"/>
</svg>
